HIERARCHY
ROOT SpineBase
{
  OFFSET 0.000000 0.000000 0.000000
  CHANNELS 6 Xposition Yposition Zposition Zrotation Xrotation Yrotation
  JOINT SpineMid
  {
    OFFSET -0.000000 29.719195 0.000000
    CHANNELS 3 Zrotation Xrotation Yrotation
    JOINT SpineShoulder
    {
      OFFSET -0.170753 22.054097 -0.840802
      CHANNELS 3 Zrotation Xrotation Yrotation
      JOINT Neck
      {
        OFFSET -0.113803 7.294885 -0.618608
        CHANNELS 3 Zrotation Xrotation Yrotation
        JOINT Head
        {
          OFFSET -2.035086 13.670325 -0.552532
          CHANNELS 3 Zrotation Xrotation Yrotation
          End Site
          {
            OFFSET 0 0 0
          }
        }
      }
      JOINT ShoulderLeft
      {
        OFFSET -17.811889 -4.955427 7.416703
        CHANNELS 3 Zrotation Xrotation Yrotation
        JOINT ElbowLeft
        {
          OFFSET -0.684220 -24.126634 0.337745
          CHANNELS 3 Zrotation Xrotation Yrotation
          JOINT WristLeft
          {
            OFFSET -0.668076 -19.781765 -5.547118
            CHANNELS 3 Zrotation Xrotation Yrotation
            JOINT HandLeft
            {
              OFFSET 1.074357 -3.902288 -1.363675
              CHANNELS 3 Zrotation Xrotation Yrotation
              JOINT HandTipLeft
              {
                OFFSET 0.259474 -6.048347 -2.029925
                CHANNELS 3 Zrotation Xrotation Yrotation
                End Site
                {
                  OFFSET 0 0 0
                }
              }
              JOINT ThumbLeft
              {
                OFFSET -3.830590 -1.164064 -2.110960
                CHANNELS 3 Zrotation Xrotation Yrotation
                End Site
                {
                  OFFSET 0 0 0
                }
              }
            }
          }
        }
      }
      JOINT ShoulderRight
      {
        OFFSET 14.257720 -3.035077 -7.271586
        CHANNELS 3 Zrotation Xrotation Yrotation
        JOINT ElbowRight
        {
          OFFSET 4.032553 -22.425467 -1.357769
          CHANNELS 3 Zrotation Xrotation Yrotation
          JOINT WristRight
          {
            OFFSET -1.044230 -19.770011 -6.279850
            CHANNELS 3 Zrotation Xrotation Yrotation
            JOINT HandRight
            {
              OFFSET -2.224625 -6.782812 -1.776636
              CHANNELS 3 Zrotation Xrotation Yrotation
              JOINT HandTipRight
              {
                OFFSET 0.344242 -8.229113 1.101079
                CHANNELS 3 Zrotation Xrotation Yrotation
                End Site
                {
                  OFFSET 0 0 0
                }
              }
              JOINT ThumbRight
              {
                OFFSET 1.180694 0.057618 -3.224400
                CHANNELS 3 Zrotation Xrotation Yrotation
                End Site
                {
                  OFFSET 0 0 0
                }
              }
            }
          }
        }
      }
    }
  }
  JOINT HipLeft
  {
    OFFSET -6.669863 0.104861 -0.926987
    CHANNELS 3 Zrotation Xrotation Yrotation
    JOINT KneeLeft
    {
      OFFSET 0.033286 -26.446048 2.604093
      CHANNELS 3 Zrotation Xrotation Yrotation
      JOINT AnkleLeft
      {
        OFFSET 2.210384 -30.516242 5.765304
        CHANNELS 3 Zrotation Xrotation Yrotation
        JOINT FootLeft
        {
          OFFSET -3.205164 -7.134229 -5.221032
          CHANNELS 3 Zrotation Xrotation Yrotation
          End Site
          {
            OFFSET 0 0 0
          }
        }
      }
    }
  }
  JOINT HipRight
  {
    OFFSET 6.417101 1.641868 -6.008170
    CHANNELS 3 Zrotation Xrotation Yrotation
    JOINT KneeRight
    {
      OFFSET 9.710003 -26.690704 -4.035060
      CHANNELS 3 Zrotation Xrotation Yrotation
      JOINT AnkleRight
      {
        OFFSET 10.158811 -27.881502 2.866267
        CHANNELS 3 Zrotation Xrotation Yrotation
        JOINT FootRight
        {
          OFFSET -4.202134 -3.433170 -12.375647
          CHANNELS 3 Zrotation Xrotation Yrotation
          End Site
          {
            OFFSET 0 0 0
          }
        }
      }
    }
  }
}
MOTION
Frames: 6
Frame Time: 0.033333
10.675702 65.675737 360.630329 2.643356 0.407805 16.510661 -0.106770 0.103842 -16.422583 -0.217419 -0.078777 0.102000 -6.438956 0.282040 -0.282768 0.000000 0.000000 0.000000 -0.178124 2.677307 -0.308691 3.619403 -3.382721 -1.272365 3.461429 11.741353 0.508281 -4.299183 -19.566125 -1.505449 0.000000 0.000000 0.000000 0.000000 0.000000 0.000000 0.145572 0.674580 -0.169407 -3.680492 1.824357 0.180892 7.820982 -10.473783 1.370669 -15.116827 29.996550 2.361011 0.000000 0.000000 0.000000 0.000000 0.000000 0.000000 -2.124326 5.480902 -16.626448 2.203527 -7.862548 0.297392 1.531804 33.704551 -14.281095 0.000000 0.000000 0.000000 -0.041762 0.906698 -16.435643 -3.069308 -3.177330 -0.931731 2.371675 2.794815 -6.369016 0.000000 0.000000 0.000000
11.607358 65.531793 360.505360 3.042922 0.294956 14.834147 -0.024750 0.091679 -14.727127 -0.144240 -0.089146 0.130912 -10.225435 0.332259 -0.464468 0.000000 0.000000 0.000000 -3.921555 7.185935 -0.415907 10.678041 -11.033067 -0.694498 -2.583415 10.227321 1.323340 -1.572674 -14.122255 -0.918611 0.000000 0.000000 0.000000 0.000000 0.000000 0.000000 -1.123222 0.612130 -0.201886 -3.483297 2.069695 0.347408 10.494681 -9.539854 0.477065 -15.088758 26.314503 2.537888 0.000000 0.000000 0.000000 0.000000 0.000000 0.000000 -3.977974 7.797232 -15.027665 3.548620 -10.169622 0.425573 3.869465 38.887012 -17.426585 0.000000 0.000000 0.000000 1.125182 2.402150 -14.414695 -4.147581 -5.766047 -1.768130 2.596548 3.928921 -7.684608 0.000000 0.000000 0.000000
12.901032 65.312853 360.199093 3.245439 0.376576 13.272400 -0.469989 0.214241 -13.178576 -0.402095 -0.078596 0.096213 -12.342592 0.166623 -0.564723 0.000000 0.000000 0.000000 -5.464922 11.264889 -0.290232 21.316460 -21.233436 1.344621 -13.249353 11.821146 4.186070 3.457451 -9.658551 -1.315221 0.000000 0.000000 0.000000 0.000000 0.000000 0.000000 -1.623850 0.427031 -0.108493 -2.830337 2.130080 0.429262 12.266663 -9.130863 -0.040426 -15.320855 25.425979 2.850640 0.000000 0.000000 0.000000 0.000000 0.000000 0.000000 -5.753411 9.769768 -13.493607 4.175354 -12.621105 0.304641 8.102880 42.316228 -21.100507 0.000000 0.000000 0.000000 2.379956 3.496106 -12.622094 -4.188890 -8.207622 -2.308031 1.892544 5.141137 -9.871298 0.000000 0.000000 0.000000
14.605545 64.870684 359.783187 3.265528 0.625013 12.347836 -0.703256 0.315499 -12.270510 -0.440912 -0.017105 0.083045 -14.765783 0.053373 -0.688971 0.000000 0.000000 0.000000 -9.701312 16.670124 0.263300 43.642385 -35.506923 10.350546 -26.330320 13.149369 8.273862 6.324009 1.373830 -1.170041 0.000000 0.000000 0.000000 0.000000 0.000000 0.000000 -3.319986 -0.084729 -0.014147 -2.099514 1.979511 0.767624 16.753710 -7.590219 -1.672283 -16.619587 21.287211 3.680242 0.000000 0.000000 0.000000 0.000000 0.000000 0.000000 -8.677649 11.950974 -12.552968 6.513795 -15.196254 0.535725 10.954623 43.564170 -23.081770 0.000000 0.000000 0.000000 4.106290 4.090783 -11.621713 -4.533111 -10.710179 -2.738905 0.789398 6.604806 -10.882184 0.000000 0.000000 0.000000
16.711857 64.435742 359.239881 1.769024 0.910529 12.529652 -0.494670 0.406378 -12.495987 -0.423842 0.041777 0.025364 -14.914971 0.495372 -0.513471 0.000000 0.000000 0.000000 -15.505908 22.327795 1.787606 66.680774 -40.854413 22.559937 -36.146119 10.634747 12.543756 12.509439 11.232650 -3.980698 0.000000 0.000000 0.000000 0.000000 0.000000 0.000000 -4.307746 -0.251004 0.253155 -1.229511 1.530016 1.032275 16.956327 -6.650555 -2.315150 -14.499440 20.819001 3.438246 0.000000 0.000000 0.000000 0.000000 0.000000 0.000000 -8.834319 13.316174 -12.724146 6.254523 -17.552233 -0.070864 13.288481 42.687841 -22.454857 0.000000 0.000000 0.000000 7.288283 3.875317 -11.782576 -4.722818 -12.855457 -2.940257 -0.817332 8.066600 -10.506678 0.000000 0.000000 0.000000
19.470894 63.975610 358.460270 -0.294554 1.450914 13.065784 -0.293573 0.373777 -13.076844 -0.350178 0.096496 -0.050063 -14.185379 1.612746 -0.060446 0.000000 0.000000 0.000000 -22.857008 26.538898 4.241192 83.827802 -41.234814 31.834053 -41.142592 5.600156 14.810588 22.056038 17.334673 -9.296382 0.000000 0.000000 0.000000 0.000000 0.000000 0.000000 -4.760543 -0.551807 0.540470 -1.427169 1.699273 1.616413 15.079686 -6.598030 -2.338189 -12.711707 22.874820 2.699092 0.000000 0.000000 0.000000 0.000000 0.000000 0.000000 -8.976980 13.330646 -13.310374 5.913425 -18.926375 -0.912973 14.969528 44.013939 -21.506221 0.000000 0.000000 0.000000 10.056635 2.885730 -12.181157 -3.981288 -14.240675 -2.875259 -2.666249 9.276096 -9.511769 0.000000 0.000000 0.000000
